<mxfile host="app.diagrams.net" agent="Mozilla/5.0 (X11; Linux x86_64) AppleWebKit/537.36 (KHTML, like Gecko) Chrome/137.0.0.0 Safari/537.36" version="27.1.6">
  <diagram name="Page-1" id="ZzzY_V8Xv3Ai5Ge_fObD">
    <mxGraphModel dx="946" dy="618" grid="1" gridSize="10" guides="1" tooltips="1" connect="1" arrows="1" fold="1" page="1" pageScale="1" pageWidth="1169" pageHeight="827" math="0" shadow="0">
      <root>
        <mxCell id="0" />
        <mxCell id="1" parent="0" />
        <mxCell id="KxzCyLmwoIFlw5JYSQNm-1" value="" style="rounded=0;whiteSpace=wrap;html=1;" parent="1" vertex="1">
          <mxGeometry x="240" y="160" width="480" height="400" as="geometry" />
        </mxCell>
        <mxCell id="-OLyAZz8_35zl1sDWnFU-2" value="main.exe" style="rounded=0;whiteSpace=wrap;html=1;" parent="1" vertex="1">
          <mxGeometry x="280" y="320" width="80" height="80" as="geometry" />
        </mxCell>
        <mxCell id="-OLyAZz8_35zl1sDWnFU-3" value="game" style="rounded=0;whiteSpace=wrap;html=1;" parent="1" vertex="1">
          <mxGeometry x="600" y="320" width="80" height="80" as="geometry" />
        </mxCell>
        <mxCell id="-OLyAZz8_35zl1sDWnFU-10" value="mu.exe" style="rounded=0;whiteSpace=wrap;html=1;dashed=1;" parent="1" vertex="1">
          <mxGeometry x="280" y="440" width="80" height="80" as="geometry" />
        </mxCell>
        <mxCell id="-OLyAZz8_35zl1sDWnFU-14" value="web" style="rounded=0;whiteSpace=wrap;html=1;dashed=1;" parent="1" vertex="1">
          <mxGeometry x="600" y="200" width="80" height="80" as="geometry" />
        </mxCell>
        <mxCell id="-OLyAZz8_35zl1sDWnFU-19" value="" style="endArrow=classic;html=1;rounded=0;exitX=1;exitY=0.25;exitDx=0;exitDy=0;entryX=0;entryY=0.25;entryDx=0;entryDy=0;" parent="1" source="-OLyAZz8_35zl1sDWnFU-2" target="-OLyAZz8_35zl1sDWnFU-29" edge="1">
          <mxGeometry width="50" height="50" relative="1" as="geometry">
            <mxPoint x="370" y="330" as="sourcePoint" />
            <mxPoint x="610" y="290" as="targetPoint" />
            <Array as="points">
              <mxPoint x="480" y="360" />
            </Array>
          </mxGeometry>
        </mxCell>
        <mxCell id="-OLyAZz8_35zl1sDWnFU-20" value="2. get server list" style="edgeLabel;html=1;align=center;verticalAlign=middle;resizable=0;points=[];" parent="-OLyAZz8_35zl1sDWnFU-19" vertex="1" connectable="0">
          <mxGeometry x="-0.325" relative="1" as="geometry">
            <mxPoint x="24" y="5" as="offset" />
          </mxGeometry>
        </mxCell>
        <mxCell id="-OLyAZz8_35zl1sDWnFU-21" value="" style="endArrow=classic;html=1;rounded=0;entryX=1;entryY=0.5;entryDx=0;entryDy=0;exitX=0;exitY=0.5;exitDx=0;exitDy=0;" parent="1" source="-OLyAZz8_35zl1sDWnFU-29" target="-OLyAZz8_35zl1sDWnFU-2" edge="1">
          <mxGeometry width="50" height="50" relative="1" as="geometry">
            <mxPoint x="560" y="340" as="sourcePoint" />
            <mxPoint x="470" y="400" as="targetPoint" />
            <Array as="points">
              <mxPoint x="480" y="400" />
            </Array>
          </mxGeometry>
        </mxCell>
        <mxCell id="-OLyAZz8_35zl1sDWnFU-22" value="3. server list" style="edgeLabel;html=1;align=center;verticalAlign=middle;resizable=0;points=[];" parent="-OLyAZz8_35zl1sDWnFU-21" vertex="1" connectable="0">
          <mxGeometry x="0.3939" y="3" relative="1" as="geometry">
            <mxPoint x="31" y="1" as="offset" />
          </mxGeometry>
        </mxCell>
        <mxCell id="-OLyAZz8_35zl1sDWnFU-23" value="" style="endArrow=classic;html=1;rounded=0;exitX=1;exitY=0.75;exitDx=0;exitDy=0;entryX=0;entryY=0.75;entryDx=0;entryDy=0;" parent="1" source="-OLyAZz8_35zl1sDWnFU-2" target="-OLyAZz8_35zl1sDWnFU-29" edge="1">
          <mxGeometry width="50" height="50" relative="1" as="geometry">
            <mxPoint x="460" y="320" as="sourcePoint" />
            <mxPoint x="510" y="270" as="targetPoint" />
            <Array as="points" />
          </mxGeometry>
        </mxCell>
        <mxCell id="-OLyAZz8_35zl1sDWnFU-24" value="4. get server addr&amp;nbsp;" style="edgeLabel;html=1;align=center;verticalAlign=middle;resizable=0;points=[];" parent="-OLyAZz8_35zl1sDWnFU-23" vertex="1" connectable="0">
          <mxGeometry x="-0.3889" y="-1" relative="1" as="geometry">
            <mxPoint x="51" y="22" as="offset" />
          </mxGeometry>
        </mxCell>
        <mxCell id="-OLyAZz8_35zl1sDWnFU-25" value="" style="endArrow=classic;html=1;rounded=0;entryX=1;entryY=1;entryDx=0;entryDy=0;exitX=0;exitY=1;exitDx=0;exitDy=0;" parent="1" source="-OLyAZz8_35zl1sDWnFU-29" target="-OLyAZz8_35zl1sDWnFU-2" edge="1">
          <mxGeometry width="50" height="50" relative="1" as="geometry">
            <mxPoint x="460" y="320" as="sourcePoint" />
            <mxPoint x="510" y="270" as="targetPoint" />
            <Array as="points">
              <mxPoint x="480" y="480" />
            </Array>
          </mxGeometry>
        </mxCell>
        <mxCell id="-OLyAZz8_35zl1sDWnFU-26" value="5. server addr" style="edgeLabel;html=1;align=center;verticalAlign=middle;resizable=0;points=[];" parent="-OLyAZz8_35zl1sDWnFU-25" vertex="1" connectable="0">
          <mxGeometry x="0.53" y="-2" relative="1" as="geometry">
            <mxPoint x="59" y="36" as="offset" />
          </mxGeometry>
        </mxCell>
        <mxCell id="-OLyAZz8_35zl1sDWnFU-29" value="connect" style="rounded=0;whiteSpace=wrap;html=1;" parent="1" vertex="1">
          <mxGeometry x="600" y="440" width="80" height="80" as="geometry" />
        </mxCell>
        <mxCell id="FHihKu_zVs_lzc1Udwfm-8" value="" style="endArrow=classic;startArrow=classic;html=1;rounded=0;exitX=1;exitY=0;exitDx=0;exitDy=0;entryX=0;entryY=0;entryDx=0;entryDy=0;" parent="1" source="-OLyAZz8_35zl1sDWnFU-2" target="-OLyAZz8_35zl1sDWnFU-29" edge="1">
          <mxGeometry width="50" height="50" relative="1" as="geometry">
            <mxPoint x="370" y="290" as="sourcePoint" />
            <mxPoint x="610" y="290" as="targetPoint" />
            <Array as="points">
              <mxPoint x="480" y="320" />
            </Array>
          </mxGeometry>
        </mxCell>
        <mxCell id="FHihKu_zVs_lzc1Udwfm-9" value="1. tcp shakehand" style="edgeLabel;html=1;align=center;verticalAlign=middle;resizable=0;points=[];" parent="FHihKu_zVs_lzc1Udwfm-8" vertex="1" connectable="0">
          <mxGeometry x="-0.0917" y="-1" relative="1" as="geometry">
            <mxPoint x="-8" y="-9" as="offset" />
          </mxGeometry>
        </mxCell>
        <mxCell id="KxzCyLmwoIFlw5JYSQNm-2" value="" style="endArrow=classic;html=1;rounded=0;entryX=0.5;entryY=0;entryDx=0;entryDy=0;exitX=0.5;exitY=1;exitDx=0;exitDy=0;" parent="1" source="-OLyAZz8_35zl1sDWnFU-3" target="-OLyAZz8_35zl1sDWnFU-29" edge="1">
          <mxGeometry width="50" height="50" relative="1" as="geometry">
            <mxPoint x="470" y="380" as="sourcePoint" />
            <mxPoint x="520" y="330" as="targetPoint" />
          </mxGeometry>
        </mxCell>
        <mxCell id="KxzCyLmwoIFlw5JYSQNm-3" value="register" style="edgeLabel;html=1;align=center;verticalAlign=middle;resizable=0;points=[];" parent="KxzCyLmwoIFlw5JYSQNm-2" vertex="1" connectable="0">
          <mxGeometry x="-0.3" y="1" relative="1" as="geometry">
            <mxPoint as="offset" />
          </mxGeometry>
        </mxCell>
      </root>
    </mxGraphModel>
  </diagram>
</mxfile>
